<svg width="114" height="24" viewBox="0 0 114 24" fill="none" xmlns="http://www.w3.org/2000/svg">
<path fill-rule="evenodd" clip-rule="evenodd" d="M44.7632 4.60789C43.4574 2.73942 41.4521 1.33808 39.1203 0.777534C38.0943 0.450552 36.6486 0.263702 35.1097 0.263702C33.5707 0.263702 32.1716 0.450552 31.099 0.777534C28.7672 1.33808 26.8085 2.73942 25.4561 4.60789C24.3369 6.14938 23.7306 8.06457 23.7306 10.1666V13.7634C23.7306 15.8187 24.3835 17.7339 25.4561 19.3221C26.7153 21.1438 28.5807 22.4518 30.7726 23.059C31.8452 23.4327 33.3842 23.713 35.1097 23.713C36.8352 23.713 38.3742 23.4794 39.4468 23.059C41.6386 22.4518 43.5041 21.0971 44.7632 19.3221C45.8825 17.7339 46.5354 15.8654 46.5354 13.7634V10.1666C46.5354 8.06457 45.8825 6.14938 44.7632 4.60789ZM40.4728 9.74618V14.0904C40.4728 15.4917 39.9598 16.7997 39.167 17.8273L38.8871 18.1076C36.8818 20.303 33.3842 20.303 31.3788 18.1076L31.099 17.8273C30.2596 16.7997 29.7932 15.4917 29.7932 14.0904V9.74618C29.7932 8.34483 30.3062 7.0369 31.099 6.00924C31.099 6.00924 31.099 5.96254 31.1456 5.96254C33.1976 3.44011 37.0684 3.44011 39.1203 5.96254C39.1203 5.96254 39.1203 6.00924 39.167 6.00924C39.9598 7.0369 40.4728 8.34483 40.4728 9.74618ZM-0.00708008 3.39335V21.0037C-0.00708008 22.4517 1.15881 23.6195 2.60451 23.6195H11.372C16.6884 23.6195 21.0256 19.322 21.0256 13.9502V10.3534C21.0256 5.02826 16.7351 0.684062 11.372 0.684062H2.60451C1.15881 0.777486 -0.00708008 1.94529 -0.00708008 3.39335ZM8.94694 20.3497H5.58919V4.04731H8.94694C12.2581 4.04731 14.9163 6.70988 14.9163 10.0264V14.3706C14.9163 17.6871 12.2581 20.3497 8.94694 20.3497ZM86.6886 23.6196C85.1496 23.6196 83.8904 22.3584 83.8904 20.8169V3.58028C83.8904 2.03879 85.1496 0.777577 86.6886 0.777577C88.2276 0.777577 89.4867 2.03879 89.4867 3.58028V20.8169C89.4867 22.4051 88.2276 23.6196 86.6886 23.6196ZM106.136 11.8016L112.665 19.7892C113.458 20.8169 113.411 22.265 112.432 23.1058C111.452 23.9466 109.96 23.8065 109.121 22.7788L102.405 14.5575L100.82 12.6891V20.8169C100.82 22.3584 99.5604 23.6196 98.0214 23.6196C96.4824 23.6196 95.2233 22.3584 95.2233 20.8169V3.58028C95.2233 2.03879 96.4824 0.777577 98.0214 0.777577C99.5604 0.777577 100.82 2.03879 100.82 3.58028V10.9607L101.985 9.51266L108.188 1.6651C108.981 0.637439 110.473 0.497309 111.499 1.29141C112.525 2.08551 112.665 3.58027 111.872 4.60793L106.136 11.8016ZM78.2942 3.95397V4.14081V4.42109V21.5176C78.2942 22.6854 77.3615 23.6196 76.1956 23.6196C75.0297 23.6196 74.097 22.6854 74.097 21.5176V7.22379V5.68231L73.584 6.94352L73.5374 7.03695L67.6613 20.4432C67.6613 20.4899 67.6146 20.5834 67.568 20.6301C67.1016 21.7512 65.8891 22.5452 64.5367 22.4518C63.5107 22.4051 62.578 21.8446 62.065 21.0505L62.0649 21.0504C61.925 20.8636 61.7852 20.6767 61.6919 20.4432L55.8158 7.03695L55.7692 6.94352L55.2562 5.68231V7.22379V21.5176C55.2562 22.6854 54.3235 23.6196 53.1576 23.6196C51.9917 23.6196 51.059 22.6854 51.059 21.5176V4.42109C51.059 4.34394 51.0731 4.28096 51.0858 4.22433C51.0962 4.1781 51.1056 4.13611 51.1056 4.09411C51.059 4.0474 51.059 4.00068 51.059 3.95397C50.9657 2.31906 52.598 0.917712 54.6966 0.777577H54.7432H55.1163H55.3028H55.4427C56.1889 0.824289 56.8418 1.05784 57.4014 1.38482C58.0543 1.75852 58.4741 2.22564 58.8005 2.83289V2.87961C58.8005 2.90296 58.8122 2.92632 58.8238 2.94967C58.8355 2.97303 58.8471 2.99638 58.8471 3.01974L64.5367 16.426L64.6766 16.7063L64.8165 16.426L70.506 3.01974C70.506 2.97302 70.506 2.92632 70.5527 2.87961V2.83289C70.8791 2.22564 71.2988 1.71181 71.9517 1.38482C72.5114 1.05784 73.1643 0.824289 73.9104 0.777577H74.0503H74.2369H74.61H74.6566C76.7552 0.917712 78.3874 2.31906 78.2942 3.95397Z" fill="#333333"/>
</svg>
