<svg width="114" height="24" viewBox="0 0 114 24" fill="none" xmlns="http://www.w3.org/2000/svg">
<path fill-rule="evenodd" clip-rule="evenodd" d="M44.7625 4.60786C43.4567 2.73939 41.4514 1.33805 39.1196 0.777504C38.0936 0.450522 36.6479 0.263672 35.1089 0.263672C33.57 0.263672 32.1709 0.450522 31.0983 0.777504C28.7665 1.33805 26.8078 2.73939 25.4554 4.60786C24.3361 6.14935 23.7299 8.06454 23.7299 10.1666V13.7634C23.7299 15.8187 24.3828 17.7339 25.4554 19.3221C26.7145 21.1438 28.58 22.4517 30.7718 23.059C31.8445 23.4327 33.3834 23.713 35.1089 23.713C36.8344 23.713 38.3734 23.4794 39.446 23.059C41.6379 22.4517 43.5033 21.0971 44.7625 19.3221C45.8817 17.7339 46.5346 15.8654 46.5346 13.7634V10.1666C46.5346 8.06454 45.8817 6.14935 44.7625 4.60786ZM40.472 9.74615V14.0904C40.472 15.4917 39.959 16.7996 39.1662 17.8273L38.8864 18.1076C36.8811 20.303 33.3834 20.303 31.3781 18.1076L31.0983 17.8273C30.2588 16.7996 29.7925 15.4917 29.7925 14.0904V9.74615C29.7925 8.3448 30.3055 7.03687 31.0983 6.00921C31.0983 6.00921 31.0983 5.96251 31.1449 5.96251C33.1969 3.44008 37.0676 3.44008 39.1196 5.96251C39.1196 5.96251 39.1196 6.00921 39.1662 6.00921C39.959 7.03687 40.472 8.3448 40.472 9.74615ZM-0.0078125 3.39332V21.0036C-0.0078125 22.4517 1.15808 23.6195 2.60378 23.6195H11.3713C16.6877 23.6195 21.0248 19.322 21.0248 13.9502V10.3534C21.0248 5.02823 16.7343 0.684032 11.3713 0.684032H2.60378C1.15808 0.777456 -0.0078125 1.94526 -0.0078125 3.39332ZM8.94621 20.3497H5.58845V4.04728H8.94621C12.2573 4.04728 14.9156 6.70985 14.9156 10.0264V14.3706C14.9156 17.6871 12.2573 20.3497 8.94621 20.3497ZM86.6879 23.6196C85.1489 23.6196 83.8897 22.3584 83.8897 20.8169V3.58025C83.8897 2.03876 85.1489 0.777547 86.6879 0.777547C88.2268 0.777547 89.486 2.03876 89.486 3.58025V20.8169C89.486 22.4051 88.2268 23.6196 86.6879 23.6196ZM106.135 11.8015L112.664 19.7892C113.457 20.8169 113.41 22.2649 112.431 23.1058C111.452 23.9466 109.959 23.8064 109.12 22.7788L102.404 14.5575L100.819 12.689V20.8169C100.819 22.3584 99.5596 23.6196 98.0207 23.6196C96.4817 23.6196 95.2225 22.3584 95.2225 20.8169V3.58025C95.2225 2.03876 96.4817 0.777547 98.0207 0.777547C99.5596 0.777547 100.819 2.03876 100.819 3.58025V10.9607L101.985 9.51263L108.187 1.66507C108.98 0.637408 110.472 0.497279 111.498 1.29138C112.524 2.08548 112.664 3.58024 111.871 4.6079L106.135 11.8015ZM78.2934 3.95394V4.14078V4.42106V21.5176C78.2934 22.6854 77.3607 23.6196 76.1948 23.6196C75.0289 23.6196 74.0962 22.6854 74.0962 21.5176V7.22376V5.68228L73.5832 6.94349L73.5366 7.03692L67.6605 20.4432C67.6605 20.4899 67.6139 20.5833 67.5673 20.63C67.1009 21.7511 65.8884 22.5452 64.5359 22.4518C63.51 22.4051 62.5773 21.8445 62.0643 21.0504L62.0642 21.0504C61.9243 20.8635 61.7844 20.6767 61.6912 20.4432L55.8151 7.03692L55.7685 6.94349L55.2555 5.68228V7.22376V21.5176C55.2555 22.6854 54.3228 23.6196 53.1569 23.6196C51.991 23.6196 51.0583 22.6854 51.0583 21.5176V4.42106C51.0583 4.34391 51.0724 4.28092 51.0851 4.2243C51.0955 4.17807 51.1049 4.13608 51.1049 4.09408C51.0583 4.04737 51.0583 4.00065 51.0583 3.95394C50.965 2.31903 52.5972 0.917682 54.6958 0.777547H54.7425H55.1156H55.3021H55.442C56.1882 0.824259 56.8411 1.05781 57.4007 1.38479C58.0536 1.75849 58.4733 2.22561 58.7998 2.83286V2.87958C58.7998 2.90293 58.8114 2.92629 58.8231 2.94964C58.8348 2.97299 58.8464 2.99635 58.8464 3.0197L64.5359 16.426L64.6759 16.7063L64.8158 16.426L70.5053 3.0197C70.5053 2.97299 70.5053 2.92629 70.5519 2.87958V2.83286C70.8784 2.22561 71.2981 1.71178 71.951 1.38479C72.5106 1.05781 73.1635 0.824259 73.9097 0.777547H74.0496H74.2362H74.6092H74.6559C76.7545 0.917682 78.3867 2.31903 78.2934 3.95394Z" fill="white"/>
</svg>
