<svg width="114" height="24" viewBox="0 0 114 24" fill="none" xmlns="http://www.w3.org/2000/svg">
<path fill-rule="evenodd" clip-rule="evenodd" d="M22.0332 15.9589V3.11313C22.0332 1.57164 23.2923 0.310425 24.8313 0.310425C25.6241 0.310425 26.3236 0.637401 26.8366 1.15123C27.3496 1.66506 27.6761 2.36574 27.6761 3.15984V10.6337V14.0437V14.9779C27.816 18.201 29.6348 19.6024 31.8266 19.6024C34.0185 19.6024 35.7907 18.2477 35.9772 15.118V13.9035V10.6337V3.15984C35.9772 1.61836 37.2364 0.357139 38.7754 0.357139C39.5682 0.357139 40.2677 0.684116 40.7807 1.19795C41.2937 1.71177 41.6201 2.41244 41.6201 3.20654V16.0523V16.426C41.6201 20.2096 37.2364 23.7597 31.8266 23.7597C26.5568 23.7597 22.2197 20.3498 22.0798 16.6595L22.0332 15.9589ZM17.6028 0.777542H2.21308C1.18709 0.777542 0.347656 1.61835 0.347656 2.64601C0.347656 3.67367 1.18709 4.51448 2.21308 4.51448H7.10981V20.8169C7.10981 22.3584 8.36898 23.6196 9.90794 23.6196C11.4469 23.6196 12.7061 22.3584 12.7061 20.8169V4.51448H17.6028C18.6288 4.51448 19.4682 3.67367 19.4682 2.64601C19.4682 1.61835 18.6288 0.777542 17.6028 0.777542ZM60.9739 0.777542H45.5841C44.5581 0.777542 43.7187 1.61835 43.7187 2.64601C43.7187 3.67367 44.5581 4.51448 45.5841 4.51448H50.4809V20.8169C50.4809 22.3584 51.74 23.6196 53.279 23.6196C54.818 23.6196 56.0771 22.3584 56.0771 20.8169V4.51448H60.9739C61.9999 4.51448 62.8393 3.67367 62.8393 2.64601C62.8393 1.61835 61.9999 0.777542 60.9739 0.777542ZM90.0278 6.33624C90.0278 8.90538 88.0691 11.0541 85.4109 11.7081C90.3543 12.5489 90.0744 16.9398 90.0278 16.9398V20.8169C90.0278 22.3584 88.7686 23.6196 87.2297 23.6196C85.6907 23.6196 84.4315 22.3584 84.4315 20.8169V16.9398C84.4315 16.9398 84.758 13.8101 80.6074 13.8101H77.0631V20.8169C77.0631 22.3584 75.804 23.6196 74.265 23.6196C72.726 23.6196 71.4669 22.3584 71.4669 20.8169V3.58025C71.4669 2.03876 72.726 0.777542 74.265 0.777542H83.8253C84.3383 0.777542 84.8979 0.824252 85.4109 0.964386C88.0691 1.61835 90.0278 3.76709 90.0278 6.33624ZM77.0631 10.587H79.8613H81.4935C83.219 10.587 84.7113 9.3725 84.8979 7.64416V7.31719C84.8979 7.08363 84.8979 6.89678 84.8513 6.66323C84.5248 5.07503 83.0791 4.00065 81.4935 4.00065H78.1357H77.0631V10.587ZM94.4121 3.11313V15.9589L94.4587 16.6595C94.5986 20.3498 98.9358 23.7597 104.206 23.7597C109.615 23.7597 113.999 20.2096 113.999 16.426V16.0523V3.20654C113.999 2.41244 113.673 1.71177 113.16 1.19795C112.647 0.684116 111.947 0.357139 111.154 0.357139C109.615 0.357139 108.356 1.61836 108.356 3.15984V10.6337V13.9035V15.118C108.17 18.2477 106.397 19.6024 104.206 19.6024C102.014 19.6024 100.195 18.201 100.055 14.9779V14.0437V10.6337V3.15984C100.055 2.36574 99.7285 1.66506 99.2156 1.15123C98.7026 0.637401 98.003 0.310425 97.2102 0.310425C95.6713 0.310425 94.4121 1.57164 94.4121 3.11313Z" fill="#F4683F"/>
</svg>
