<svg width="40" height="12" viewBox="0 0 40 12" fill="none" xmlns="http://www.w3.org/2000/svg">
<path d="M9.156 8.516V11.666H7.518V10H1.75V11.666H0.126V8.516H0.476C0.952 8.49733 1.274 8.194 1.442 7.606C1.61933 7.00867 1.736 6.16867 1.792 5.086L1.89 2.524H8.05V8.516H9.156ZM3.388 5.212C3.35067 6.07067 3.28067 6.77067 3.178 7.312C3.07533 7.85333 2.88867 8.25467 2.618 8.516H6.3V4.008H3.43L3.388 5.212ZM14.051 10.098C13.295 10.098 12.6136 9.93467 12.007 9.608C11.4003 9.28133 10.9243 8.82867 10.579 8.25C10.243 7.662 10.075 6.99933 10.075 6.262C10.075 5.52467 10.243 4.86667 10.579 4.288C10.9243 3.70933 11.4003 3.25667 12.007 2.93C12.6136 2.60333 13.295 2.44 14.051 2.44C14.8163 2.44 15.5023 2.60333 16.109 2.93C16.7156 3.25667 17.187 3.70933 17.523 4.288C17.8683 4.86667 18.041 5.52467 18.041 6.262C18.041 6.99933 17.8683 7.662 17.523 8.25C17.187 8.82867 16.7156 9.28133 16.109 9.608C15.5023 9.93467 14.8163 10.098 14.051 10.098ZM14.051 8.6C14.695 8.6 15.227 8.38533 15.647 7.956C16.067 7.52667 16.277 6.962 16.277 6.262C16.277 5.562 16.067 4.99733 15.647 4.568C15.227 4.13867 14.695 3.924 14.051 3.924C13.407 3.924 12.875 4.13867 12.455 4.568C12.0443 4.99733 11.839 5.562 11.839 6.262C11.839 6.962 12.0443 7.52667 12.455 7.956C12.875 8.38533 13.407 8.6 14.051 8.6ZM27.2509 4.246C28.1562 4.358 28.8469 4.666 29.3229 5.17C29.7989 5.674 30.0369 6.304 30.0369 7.06C30.0369 7.62933 29.8922 8.14733 29.6029 8.614C29.3136 9.08067 28.8749 9.454 28.2869 9.734C27.7082 10.0047 26.9989 10.14 26.1589 10.14C25.4589 10.14 24.7822 10.042 24.1289 9.846C23.4849 9.64067 22.9342 9.36067 22.4769 9.006L23.2609 7.592C23.6156 7.89067 24.0449 8.12867 24.5489 8.306C25.0622 8.474 25.5896 8.558 26.1309 8.558C26.7749 8.558 27.2789 8.42733 27.6429 8.166C28.0162 7.89533 28.2029 7.53133 28.2029 7.074C28.2029 6.61667 28.0256 6.262 27.6709 6.01C27.3256 5.74867 26.7936 5.618 26.0749 5.618H25.1789V4.372L27.4049 1.726H22.9529V0.199999H29.6309V1.418L27.2509 4.246ZM35.3153 10.14C34.5313 10.14 33.8313 9.944 33.2153 9.552C32.5993 9.15067 32.114 8.572 31.7593 7.816C31.4047 7.05067 31.2273 6.14533 31.2273 5.1C31.2273 4.05467 31.4047 3.154 31.7593 2.398C32.114 1.63267 32.5993 1.054 33.2153 0.661999C33.8313 0.260666 34.5313 0.0599995 35.3153 0.0599995C36.0993 0.0599995 36.7993 0.260666 37.4153 0.661999C38.0407 1.054 38.5307 1.63267 38.8853 2.398C39.24 3.154 39.4173 4.05467 39.4173 5.1C39.4173 6.14533 39.24 7.05067 38.8853 7.816C38.5307 8.572 38.0407 9.15067 37.4153 9.552C36.7993 9.944 36.0993 10.14 35.3153 10.14ZM35.3153 8.558C36.0153 8.558 36.566 8.26867 36.9673 7.69C37.378 7.11133 37.5833 6.248 37.5833 5.1C37.5833 3.952 37.378 3.08867 36.9673 2.51C36.566 1.93133 36.0153 1.642 35.3153 1.642C34.6247 1.642 34.074 1.93133 33.6633 2.51C33.262 3.08867 33.0613 3.952 33.0613 5.1C33.0613 6.248 33.262 7.11133 33.6633 7.69C34.074 8.26867 34.6247 8.558 35.3153 8.558Z" fill="#727488"/>
</svg>
